<svg width="94" height="70" viewBox="0 0 94 70" xmlns="http://www.w3.org/2000/svg">
<path fill-rule="evenodd" clip-rule="evenodd" d="M26.7274 11.4539C26.4919 11.4539 26.2564 11.3669 26.0722 11.1928C25.6924 10.8324 25.6782 10.2336 26.0399 9.85619C31.5337 4.10957 38.9445 0.946324 46.907 0.946324C54.6046 0.946324 61.8407 3.93173 67.2832 9.35389C67.6544 9.72376 67.6544 10.3225 67.2832 10.6915C66.9129 11.0613 66.3118 11.0613 65.9406 10.6915C60.857 5.62686 54.0975 2.83822 46.907 2.83822C39.4696 2.83822 32.5468 5.7943 27.4148 11.1597C27.2278 11.3555 26.978 11.4539 26.7274 11.4539ZM19.9534 9.90841C19.7075 9.90841 19.4274 9.9784 19.1596 10.2035C15.1186 13.6004 10.8867 23.0929 6.79441 32.2723L6.7944 32.2723L6.79435 32.2725C6.14014 33.7406 5.48974 35.1992 4.84598 36.6191C1.83988 43.2502 1.1401 48.2835 2.70582 52.0068C4.56303 56.4215 9.43109 58.5196 14.2583 60.2904C15.9313 60.9034 17.7306 60.6717 19.1966 59.6529C20.6731 58.6275 21.5201 57.0108 21.5201 55.2192V11.49C21.5201 10.7512 21.0083 10.2508 20.5696 10.0484C20.4462 9.99165 20.2202 9.90841 19.9534 9.90841ZM16.1364 62.521C15.2885 62.521 14.434 62.3706 13.6022 62.066C8.61168 60.2346 3.10651 57.8537 0.954952 52.7371C-0.8263 48.5039 -0.119876 42.9768 3.11505 35.8415C3.75691 34.4235 4.40542 32.9696 5.05867 31.5044C9.23835 22.1291 13.5604 12.436 17.9348 8.75719C18.8881 7.95692 20.2031 7.79327 21.37 8.33246C22.6148 8.90854 23.4191 10.1477 23.4191 11.49V55.2192C23.4191 57.603 22.2464 59.8402 20.2829 61.2052C19.0295 62.0754 17.5949 62.521 16.1364 62.521ZM73.3861 9.90841C73.1193 9.90841 72.8933 9.99165 72.7699 10.0484C72.3312 10.2508 71.8195 10.7512 71.8195 11.49V55.2192C71.8195 57.0108 72.6664 58.6275 74.1429 59.6529C75.6089 60.6717 77.4091 60.9034 79.0812 60.2904C83.9084 58.5196 88.7765 56.4215 90.6337 52.0068C92.1994 48.2835 91.4996 43.2502 88.4945 36.6191C87.8498 35.1992 87.1994 33.7406 86.5452 32.2725L86.5451 32.2724C82.4528 23.0929 78.2209 13.6004 74.1799 10.2035C73.9121 9.9784 73.632 9.90841 73.3861 9.90841ZM77.2031 62.521C75.7447 62.521 74.3109 62.0754 73.0567 61.2052C71.0931 59.8402 69.9205 57.603 69.9205 55.2192V11.49C69.9205 10.1477 70.7247 8.90854 71.9695 8.33246C73.1345 7.79327 74.4505 7.95692 75.4048 8.75719C79.7791 12.436 84.1012 22.1291 88.2809 31.5044C88.9341 32.9696 89.5826 34.4235 90.2245 35.8415C93.4594 42.9768 94.1658 48.5039 92.3846 52.7371C90.233 57.8537 84.7278 60.2346 79.7373 62.066C78.9055 62.3706 78.05 62.521 77.2031 62.521ZM46.6702 53.7648C50.3153 53.7648 53.2701 51.802 53.2701 49.3813C53.2701 46.9597 50.3153 44.9969 46.6702 44.9969C43.0241 44.9969 40.0703 46.9597 40.0703 49.3813C40.0703 51.802 43.0241 53.7648 46.6702 53.7648ZM34.9362 34.7691C34.9362 35.979 33.9516 36.9599 32.7363 36.9599C31.5209 36.9599 30.5363 35.979 30.5363 34.7691C30.5363 33.5583 31.5209 32.5773 32.7363 32.5773C33.9516 32.5773 34.9362 33.5583 34.9362 34.7691ZM60.6036 36.9599C61.818 36.9599 62.8035 35.979 62.8035 34.7691C62.8035 33.5583 61.818 32.5773 60.6036 32.5773C59.3882 32.5773 58.4036 33.5583 58.4036 34.7691C58.4036 35.979 59.3882 36.9599 60.6036 36.9599ZM26.0565 61.4926C31.499 66.9157 38.736 69.9021 46.4326 69.9021C54.3951 69.9021 61.8059 66.7379 67.2997 60.9922C67.6614 60.6148 67.6472 60.016 67.2674 59.6556C66.8876 59.2952 66.2875 59.3084 65.9248 59.6878C60.7928 65.0541 53.87 68.0102 46.4326 68.0102C39.243 68.0102 32.4836 65.2206 27.3991 60.1551C27.0278 59.7861 26.4268 59.7861 26.0565 60.1551C25.6852 60.5249 25.6852 61.1237 26.0565 61.4926Z" />
</svg>
